<svg width="57" height="40" viewBox="0 0 57 40" fill="none" xmlns="http://www.w3.org/2000/svg">
<path d="M9.5 28.9522V15.0551H14.7778V10.4228H0V15.0551H5.27778V28.9522H9.5ZM38.7235 28.9522L41.6944 23.9374L44.6654 28.9522H49.7012L44.2123 19.6875L49.7012 10.4228H44.6654L41.6944 15.4376L38.7235 10.4228H33.6877L39.1765 19.6875L33.6877 28.9522H38.7235ZM52.7778 10.4228H57V28.9522H52.7778V10.4228ZM0 0H57V4.63235H0V0ZM0 34.7426H57V39.375H0V34.7426ZM26.5653 25.4779L27.6209 28.9522H32.0715L26.4417 10.4228H20.3786L15.1748 28.9522H19.5928L20.5692 25.4779H26.5653ZM23.4492 15.221L25.158 20.8456H21.8695L23.4492 15.221Z" fill="#FFC000"/>
</svg>
